<svg width="114" height="50" fill="none" xmlns="http://www.w3.org/2000/svg"><path d="M46.7262 27.7256C45.163 27.7256 43.8629 33.9306 42.5855 33.8703C41.5108 33.8199 42.4095 29.5903 40.7614 29.5794C39.7499 29.5725 39.4474 31.2691 38.9867 32.7244C38.96 32.8075 38.2135 35.737 37.0795 35.737C36.3577 35.737 35.726 35.1596 35.726 33.4511C35.726 32.6523 35.6864 31.4629 34.7313 31.2651C33.0772 30.923 33.4549 32.6226 32.0055 32.3487C28.0814 31.6082 25.1113 39.667 27.498 40.7467C30.3593 42.0399 32.4474 36.963 33.3017 37.1024C33.9532 37.2091 33.5301 39.3961 35.5836 39.2567C37.2574 39.143 38.5783 35.6856 39.2299 35.7261C39.8073 35.7627 39.305 37.8073 40.7485 37.8834C42.4392 37.9724 43.1362 35.1665 43.9074 35.1527C44.1002 35.1497 44.1842 35.295 44.1674 35.9851C44.1457 36.9234 44.0201 48.8204 44.0013 49.206C43.9657 49.9396 44.3207 49.9999 44.4799 49.9999C44.5886 49.9999 46.213 49.9663 46.5255 49.9534C46.8379 49.9406 46.8923 49.6479 46.8893 49.469C46.8883 49.3978 47.1147 32.152 47.1305 28.4187C47.1335 27.7256 46.8448 27.7256 46.7262 27.7256ZM32.7955 34.8264C32.4039 36.2323 30.8141 38.5449 30.0706 38.6161C29.8492 38.6368 29.5278 38.5202 29.5397 38.013C29.5674 36.8245 31.4222 34.1323 32.1884 33.9277C32.7114 33.7873 32.9448 34.2965 32.7965 34.8274L32.7955 34.8264Z" fill="#000"/><path d="M95.596 20.0574C92.5469 21.9834 93.1351 14.8599 91.2784 14.8599C89.2545 14.8599 88.6633 19.0826 87.9425 19.1538C87.0596 19.2408 88.2717 16.0582 86.5217 16.1293C84.5928 16.2084 83.5132 23.2005 82.1142 22.6597C80.6776 22.104 81.7078 18.4093 80.0903 18.1394C79.2568 18.0009 79.0848 18.6673 78.5875 18.9896C77.844 19.4711 76.5082 18.6327 74.4112 21.0758C72.0413 23.8382 71.3156 28.2992 73.1239 28.6027C75.5581 29.012 77.7758 24.8575 78.3383 24.3227C79.1224 23.5772 78.6854 26.475 80.7972 26.5176C83.0287 26.5621 83.7 22.8792 84.3496 22.9148C84.9062 22.9454 84.2606 24.8467 85.3235 24.9821C87.6271 25.2758 88.8887 19.2398 89.8359 19.3723C90.784 19.5038 90.4271 23.1056 92.709 23.332C94.6459 23.5248 95.9737 20.88 96.1536 20.4895C96.3405 20.0851 96.0211 19.7875 95.595 20.0564L95.596 20.0574ZM78.2454 21.9567C77.8034 23.2114 76.529 25.2253 75.746 25.3647C75.4761 25.4132 75.1498 25.1472 75.1705 24.6865C75.22 23.6078 77.0263 21.319 77.7589 21.149C78.2602 21.0323 78.4243 21.4446 78.2444 21.9567H78.2454Z" fill="#000"/><path d="M33.9104 45.1109C34.4532 45.3739 35.2085 45.8643 34.8229 46.7433C34.5471 47.3701 34.2841 47.8605 34.2267 47.9584C33.8906 48.5318 33.0779 48.8759 32.107 48.4171C30.5527 47.6825 22.2082 43.6981 21.9422 43.5755C21.6476 43.4391 21.172 43.5389 21.17 44.3566C21.169 45.1861 21.17 46.3231 21.17 46.5791C21.17 46.8797 21.2116 47.6202 20.5966 48.0553C19.945 48.517 18.8773 49.1517 18.6874 49.2476C18.4195 49.3831 17.7323 49.918 17.7234 48.8047C17.7056 46.591 17.7047 42.483 17.7056 42.2546C17.7066 42.0262 17.7561 41.5882 17.0986 41.2886C16.5054 41.0187 12.7295 39.2351 12.4942 39.1264C12.1917 38.987 11.9633 38.4442 12.5812 38.0714C13.3158 37.6275 16.9879 35.4791 17.242 35.2991C17.6691 34.9956 17.6691 34.7049 17.673 33.82C17.677 32.8234 17.6167 19.8765 17.6236 19.6659C17.6355 19.3287 17.59 19.0499 18.1634 18.6802C18.814 18.2609 19.514 17.8061 19.7404 17.6578C20.1003 17.4245 21.2027 16.9618 21.1859 18.2115C21.174 19.0479 21.1819 30.8935 21.1859 31.2089C21.1918 31.641 21.3935 32.3024 22.0915 31.7863C30.4499 25.6129 31.5592 20.3936 29.8943 16.941C26.4932 9.89066 8.82025 21.146 1.17467 27.4499C-0.0275807 28.4376 0.00208008 27.9996 0.000102688 27.5211C-0.0018747 26.9565 0.0248201 24.8625 0.0703 24.4759C0.136543 23.9192 0.27496 22.1149 1.92707 20.9166C3.52678 19.7559 25.4382 5.64026 31.8054 14.7115C34.9109 19.135 33.0146 26.1191 21.9827 34.2303C21.3085 34.7257 21.1849 34.8888 21.1849 35.7836C21.1849 36.6784 21.1641 38.0299 21.1849 38.286C21.2056 38.542 21.2313 39.0829 21.7633 39.3538C22.2952 39.6247 33.4585 44.8914 33.9084 45.1099L33.9104 45.1109Z" fill="#000"/><path d="M54.9052 27.0287C54.0935 26.1191 52.4671 26.1339 51.2154 26.9051C49.5642 27.9225 49.1233 29.5123 49.935 30.4219C50.7467 31.3315 52.6865 31.1397 53.875 30.3497C55.2354 29.446 55.7169 27.9383 54.9052 27.0277V27.0287Z" fill="#000"/><path d="M67.2709 2.76412C71.1564 6.58938 64.5371 13.8405 62.9394 15.7061C62.2226 16.5436 61.5562 17.7893 62.6833 18.9837C63.8262 20.1958 65.0156 21.319 65.9944 22.2256C67.2046 23.3458 66.8447 25.4408 66.0785 26.5758C65.5693 27.3302 64.4293 28.662 63.1154 30.3408C61.7984 32.0245 60.6041 33.561 60.4706 33.729C59.5501 34.8967 59.7805 36.1998 60.2729 36.9631C61.6857 39.156 61.8222 39.1234 62.7229 37.5583C64.2227 34.9531 66.2011 32.5327 67.7059 30.8164C69.0634 29.27 69.798 28.1647 69.9898 27.8918C71.3532 25.947 71.4817 23.8698 70.1064 22.6725C68.2843 21.0866 66.1774 19.7005 64.4363 18.3736C63.4308 17.6074 64.1278 16.6632 65.2035 15.8584C69.0307 12.9941 74.3726 8.19897 71.9227 2.42697C69.5528 -3.15619 58.3943 1.15057 57.9425 12.7045C57.7814 16.8243 58.3281 28.2191 58.0226 31.0704C57.8446 32.7305 58.4754 32.5446 59.0815 32.2935C59.6362 32.0641 61.7658 31.023 61.6561 28.309C61.5463 25.6059 61.2981 13.8157 61.2191 12.5947C60.8058 6.23641 64.7487 0.280516 67.2718 2.76412H67.2709Z" fill="#000"/><path d="M90.0939 34.5398H72.8916V50H90.0939V34.5398Z" fill="#000"/><path d="M113.463 34.54H90.0938V50.0003H113.463V34.54Z" fill="red"/><path d="M80.848 46.8517H79.5934C79.5703 46.8517 79.5588 46.8402 79.5588 46.8171L79.1406 43.7858C79.0358 43.1233 78.8618 42.8455 78.3041 42.8455H77.3985V46.8171C77.3985 46.8517 77.3639 46.8517 77.3293 46.8517H76.1102C76.0756 46.8517 76.041 46.8171 76.041 46.8171V37.7577C76.041 37.7231 76.0756 37.6885 76.1102 37.6885H78.3051C80.0472 37.6885 80.7788 38.4201 80.7788 40.1276V40.3362C80.7788 41.3813 80.4308 41.8341 79.803 42.1831C80.1866 42.3571 80.2904 42.9849 80.4298 43.7165L80.9173 46.7825C80.9173 46.8517 80.8827 46.8517 80.848 46.8517ZM77.3985 41.6255H78.4089C79.1406 41.6255 79.4886 41.2418 79.4886 40.4756V40.0574C79.4886 39.2911 79.1406 38.9075 78.4089 38.9075H77.3985V41.6255Z" fill="#fff"/><path d="M86.9456 37.7577V38.8729C86.9456 38.9075 86.911 38.9075 86.911 38.9075H84.2277V41.6255H86.4928C86.5274 41.6255 86.5274 41.6601 86.5274 41.6601V42.7753C86.5274 42.8099 86.4928 42.8099 86.4928 42.8099H84.2277V45.6317H86.911C86.9456 45.6317 86.9456 45.6663 86.9456 45.7009V46.8161C86.9456 46.8507 86.911 46.8507 86.911 46.8507H82.9741C82.9395 46.8507 82.9395 46.8161 82.9395 46.8161V37.7567C82.9395 37.7221 82.9741 37.6875 82.9741 37.6875H86.911C86.911 37.7221 86.9456 37.7221 86.9456 37.7567V37.7577Z" fill="#fff"/><path d="M99.7577 37.7579V46.8173C99.7577 46.8519 99.7231 46.8519 99.6885 46.8519H98.5386C98.504 46.8519 98.504 46.8173 98.504 46.8173V40.8941H98.4694L97.0753 44.7262C97.0753 44.7609 97.0407 44.7609 97.0407 44.7609H95.9957C95.9726 44.7609 95.9495 44.7493 95.9265 44.7262L94.5324 40.8941H94.4978V46.8173C94.4978 46.8519 94.4632 46.8519 94.4632 46.8519H93.3134C93.2787 46.8519 93.2441 46.8173 93.2441 46.8173V37.7579C93.2441 37.7233 93.2787 37.6887 93.3134 37.6887H94.568C94.5911 37.6887 94.6141 37.7003 94.6372 37.7233L96.5187 43.089H96.5533L98.4348 37.7233C98.4348 37.6887 98.4694 37.6887 98.504 37.6887H99.7587C99.724 37.7233 99.7587 37.7233 99.7587 37.7579H99.7577Z" fill="#fff"/><path d="M103.347 37.7577V46.8171C103.347 46.8517 103.312 46.8517 103.278 46.8517H102.058C102.024 46.8517 101.989 46.8171 101.989 46.8171V37.7577C101.989 37.7231 102.024 37.6885 102.058 37.6885H103.278C103.312 37.7231 103.347 37.7231 103.347 37.7577Z" fill="#fff"/><path d="M110.314 46.8161C110.314 46.8507 110.28 46.8507 110.28 46.8507H109.061C109.026 46.8507 109.026 46.8161 109.026 46.8161L108.852 43.9242C108.817 43.0877 108.504 42.8089 107.912 42.8089C107.32 42.8089 107.006 43.0531 106.971 43.9242L106.832 46.8161C106.832 46.8507 106.797 46.8507 106.763 46.8507H105.544C105.509 46.8507 105.475 46.8161 105.475 46.8161L105.649 43.9944C105.683 43.0541 105.893 42.5657 106.45 42.2177C105.927 41.9043 105.788 41.4514 105.719 40.5448L105.545 37.7577C105.545 37.7231 105.579 37.6885 105.579 37.6885H106.798C106.833 37.6885 106.833 37.7231 106.833 37.7577L107.007 40.5794C107.042 41.3813 107.32 41.6245 107.878 41.6245C108.436 41.6245 108.715 41.3457 108.749 40.5794L108.889 37.7577C108.889 37.7231 108.923 37.6885 108.958 37.6885H110.177C110.211 37.6885 110.246 37.7231 110.246 37.7577L110.072 40.5448C110.003 41.4505 109.863 41.9033 109.34 42.2177C109.933 42.5657 110.107 43.0541 110.142 43.9944L110.316 46.8161H110.314Z" fill="#fff"/></svg>