<svg width="172" height="40" fill="none" xmlns="http://www.w3.org/2000/svg"><path d="M133.133 21.7139L128.522 12.7454H125.807V27.483H128.021V16.186L132.065 24.0098H134.14L138.187 16.186V27.483H140.399V12.7454H137.744L133.133 21.7139Z" fill="#000"/><path d="M149.885 16.9813C149.135 16.4716 148.26 16.2139 147.373 16.2409C146.46 16.2221 145.56 16.4761 144.773 16.9747C144.019 17.4677 143.407 18.1755 143.004 19.0195C142.569 19.9493 142.351 20.9792 142.37 22.0199C142.351 23.0521 142.575 24.0727 143.019 24.9877C143.437 25.8331 144.068 26.535 144.84 27.0129C145.663 27.515 146.597 27.7685 147.543 27.7467C149.13 27.7906 150.671 27.171 151.842 26.0182L150.665 24.4593C150.278 24.8736 149.822 25.2055 149.321 25.4377C148.779 25.6653 148.2 25.7761 147.619 25.7639C146.872 25.7931 146.142 25.5169 145.577 24.9909C145.018 24.4346 144.659 23.6839 144.564 22.8711H152.072V22.2189C152.096 21.1413 151.902 20.0711 151.505 19.0815C151.165 18.228 150.602 17.4986 149.885 16.9813ZM144.564 21.1133C144.653 20.3241 144.982 19.5885 145.498 19.0195C145.739 18.7628 146.026 18.5614 146.341 18.4274C146.657 18.2934 146.994 18.2297 147.333 18.2401C147.67 18.2248 148.005 18.2847 148.318 18.4161C148.632 18.5474 148.916 18.7474 149.154 19.0032C149.642 19.5832 149.923 20.3312 149.946 21.1133H144.564Z" fill="#000"/><path d="M156.889 13.2834H154.766V16.5023H152.718V18.4591H154.753V23.6771C154.753 26.3731 155.905 27.7211 158.209 27.7211C158.809 27.7261 159.407 27.6371 159.984 27.4569V25.536C159.747 25.5795 159.532 25.6121 159.337 25.6339C159.1 25.6623 158.861 25.6753 158.621 25.673C157.986 25.673 157.539 25.4969 157.281 25.1447C157.022 24.7925 156.891 24.2065 156.889 23.3869V18.4493H159.984V16.4925H156.889V13.2834Z" fill="#000"/><path d="M169.016 16.5025V17.9146C168.657 17.3876 168.183 16.9632 167.636 16.6786C167.049 16.3787 166.405 16.2291 165.755 16.2416C164.885 16.2242 164.029 16.4792 163.292 16.9753C162.57 17.476 161.989 18.1784 161.611 19.0071C161.193 19.9356 160.986 20.9569 161.004 21.9879C160.989 23.0165 161.197 24.0346 161.611 24.9622C161.977 25.7889 162.544 26.4942 163.252 27.0037C163.962 27.5044 164.796 27.7635 165.646 27.7473C166.324 27.7599 166.996 27.5989 167.606 27.2777C168.175 26.9685 168.663 26.5111 169.025 25.9471V27.4831H171.106V16.5025H169.016ZM168.983 23.6414C168.761 24.2455 168.368 24.7598 167.86 25.1122C167.337 25.4788 166.723 25.6685 166.098 25.6568C165.698 25.6763 165.299 25.5985 164.932 25.429C164.564 25.2596 164.237 25.003 163.974 24.6785C163.452 24.0262 163.191 23.1228 163.191 21.9944C163.143 21.0252 163.433 20.0714 164.004 19.3202C164.279 18.994 164.617 18.7371 164.995 18.5679C165.372 18.3988 165.78 18.3216 166.189 18.3418C166.791 18.3261 167.383 18.512 167.883 18.8736C168.383 19.2352 168.766 19.7548 168.98 20.3605L168.983 23.6414Z" fill="#000"/><path d="M115.12 12.2465C113.339 12.2465 111.949 13.688 110.69 15.5078C110.599 15.3839 110.508 15.2664 110.417 15.149L110.378 15.0936C110.247 14.9273 110.12 14.7675 109.993 14.6175L109.886 14.4935C109.789 14.3826 109.695 14.275 109.598 14.1674L109.495 14.0533C109.371 13.9228 109.246 13.7989 109.122 13.6847L109.082 13.6489C108.973 13.5488 108.864 13.4543 108.755 13.3651L108.646 13.2771L108.36 13.0651L108.272 13.0031C108.151 12.9249 108.03 12.8498 107.908 12.7814L107.829 12.7422C107.732 12.69 107.635 12.6411 107.526 12.5987L107.417 12.5498C107.314 12.5074 107.211 12.4683 107.113 12.4357L107.053 12.4161C106.928 12.377 106.804 12.3476 106.677 12.3215L106.577 12.302L106.273 12.2596H106.164C106.033 12.2596 105.903 12.24 105.77 12.24C102.238 12.24 99.5352 17.1808 99.5352 22.4086C99.5352 25.6699 101.007 27.7441 103.479 27.7441C105.254 27.7441 106.531 26.844 108.8 22.5815L110.396 19.5485L110.699 20.0931L110.772 20.2236C110.881 20.416 110.991 20.6084 111.103 20.8139L112.168 22.738C114.24 26.4689 115.396 27.731 117.489 27.731C119.892 27.731 121.227 25.6405 121.227 22.301C121.245 16.8449 118.481 12.2465 115.12 12.2465ZM107.071 21.4302C105.233 24.5317 104.595 25.2264 103.57 25.2264C102.545 25.2264 101.889 24.248 101.889 22.4575C101.889 18.6614 103.652 14.7805 105.748 14.7805H105.936H105.985C106.042 14.7838 106.099 14.7903 106.155 14.8001H106.185C106.246 14.8001 106.307 14.8262 106.364 14.8392H106.413L106.567 14.8881H106.598C106.658 14.911 106.716 14.9338 106.777 14.9632L106.819 14.986C106.871 15.0099 106.922 15.0371 106.971 15.0675L107.01 15.0871L107.189 15.2045L107.232 15.2338L107.387 15.3512L107.429 15.3839C107.49 15.436 107.553 15.4882 107.614 15.5469L107.65 15.5828C107.705 15.6328 107.76 15.685 107.814 15.7393L107.863 15.7883C107.927 15.8567 107.993 15.9252 108.06 16.0002L108.087 16.0328L108.266 16.2448C108.285 16.265 108.302 16.2869 108.318 16.3101L108.53 16.5775H108.545L108.752 16.8579C108.77 16.884 108.788 16.9134 108.809 16.9395L109.028 17.2656V17.2819C109.107 17.3961 109.186 17.5135 109.264 17.6374L109.292 17.6798C107.908 20.0051 107.071 21.4302 107.071 21.4302ZM117.556 25.2264C116.509 25.2264 116.008 24.4828 114.018 21.0422L112.744 18.7593C112.474 18.2864 112.213 17.8494 111.958 17.4352C111.889 17.3243 111.819 17.2036 111.752 17.1091C112.899 15.2077 113.845 14.2587 114.971 14.2587C117.307 14.2587 119.179 17.9603 119.179 22.5032C119.179 24.2219 118.651 25.2264 117.556 25.2264Z" fill="#000"/><path d="M25.2318 36.0865C24.9011 35.9104 16.5947 31.6968 16.1973 31.4783C16.0608 31.392 15.9492 31.2669 15.8748 31.1166C15.8004 30.9664 15.766 30.797 15.7756 30.6271C15.7756 30.4217 15.7756 29.3422 15.7756 28.6247C15.7756 27.9072 15.8666 27.78 16.3823 27.3822C24.5735 20.8955 25.9781 15.3089 23.6634 11.7705C18.9307 4.51087 2.62424 15.8014 1.43501 16.7341C1.02768 17.0708 0.693277 17.4986 0.454938 17.988C0.216599 18.4773 0.0800188 19.0165 0.0546512 19.5682C0.0182461 19.8943 4.3593e-05 21.5608 4.3593e-05 22.0174C4.3593e-05 22.3989 -0.0211927 22.7479 0.873766 21.9554C6.5651 16.9135 19.7195 7.90912 22.2466 13.5511C23.4844 16.3069 22.6592 20.4878 16.44 25.4384C15.9212 25.8396 15.7756 25.308 15.7756 24.9623C15.7756 24.7112 15.7756 15.2372 15.7756 14.5654C15.7756 13.5674 14.9686 13.9359 14.6986 14.1251L13.5245 14.9437C13.3883 15.0113 13.2759 15.1242 13.2038 15.2657C13.1317 15.4072 13.1038 15.5698 13.1241 15.7296C13.1241 15.8992 13.1635 26.2538 13.1605 27.0528C13.1605 27.7605 13.1605 27.992 12.8389 28.2366C12.6508 28.3801 9.9174 30.0988 9.37132 30.4543C8.91019 30.7511 9.06795 31.1848 9.30761 31.2989C9.48054 31.3837 12.2898 32.8122 12.7327 33.0274C12.8805 33.0787 13.0068 33.1843 13.0894 33.3256C13.172 33.4669 13.2058 33.635 13.1848 33.8003C13.1848 33.983 13.1848 37.2671 13.1848 39.0379C13.1848 39.9315 13.7035 39.501 13.9038 39.3934C14.0463 39.3151 14.8382 38.8129 15.3236 38.4411C15.481 38.2985 15.6026 38.1156 15.6773 37.9094C15.752 37.7032 15.7775 37.4801 15.7513 37.2605C15.7513 37.0583 15.7513 36.1452 15.7513 35.4799C15.7513 34.8146 16.1063 34.7494 16.3247 34.857C16.5431 34.9646 22.735 38.1574 23.8909 38.7314C24.616 39.0999 25.2197 38.8227 25.4684 38.3629C25.514 38.2846 25.7081 37.8932 25.9144 37.3845C26.1996 36.6898 25.6383 36.2952 25.2318 36.0865Z" fill="#000"/><path d="M34.7695 22.177C33.6075 22.177 32.6458 27.1407 31.6902 27.0917C30.8893 27.0689 31.5506 23.6707 30.3371 23.6609C29.5848 23.6609 29.3603 25.0143 29.0175 26.1786C28.9962 26.2438 28.4441 28.5887 27.6007 28.5887C27.0607 28.5887 26.5904 28.1256 26.5904 26.7591C26.5904 26.1068 26.5631 25.1708 25.8502 25.011C24.6367 24.7371 24.9037 26.097 23.8237 25.8785C20.9021 25.285 18.6905 31.7488 20.4714 32.5968C22.595 33.6306 24.1513 29.567 24.7884 29.6812C25.2708 29.766 24.9553 31.514 26.4843 31.4031C27.7311 31.3151 28.7141 28.5463 29.2146 28.5821C29.6454 28.6082 29.2723 30.2421 30.3432 30.3041C31.6022 30.3758 32.121 28.1288 32.6974 28.119C32.84 28.119 32.9007 28.2364 32.8885 28.7713C32.8703 29.5246 32.7793 39.041 32.7641 39.3476C32.7368 39.9379 33.0008 39.9998 33.1221 39.9998C33.2435 39.9998 34.4115 39.9737 34.639 39.9607C34.8665 39.9477 34.9151 39.7194 34.912 39.5759C34.912 39.5172 35.0759 25.722 35.088 22.7347C35.0728 22.177 34.8605 22.177 34.7695 22.177ZM24.4031 27.8581C24.0997 28.9833 22.9287 30.8357 22.3766 30.8911C22.2127 30.8911 21.97 30.8161 21.9791 30.4084C22.0004 29.4562 23.3838 27.3037 23.9511 27.1472C24.3394 27.0265 24.5123 27.4342 24.4031 27.8581Z" fill="#000"/><path d="M71.138 16.0458C68.8657 17.5851 69.3177 11.8877 67.9252 11.8877C66.4083 11.8877 65.9806 15.2664 65.4406 15.3218C64.7853 15.3936 65.6863 12.8465 64.3848 12.9052C62.9499 12.9639 62.1459 18.5603 61.1053 18.1232C60.0648 17.6862 60.802 14.7217 59.5885 14.5065C58.9665 14.3956 58.8391 14.9305 58.469 15.1881C57.9138 15.5729 56.9218 14.9011 55.3594 16.8579C53.5968 19.0657 53.0568 22.6368 54.4007 22.8782C56.221 23.2043 57.8653 19.8811 58.2809 19.4571C58.8664 18.857 58.5418 21.1758 60.1012 21.2117C61.7606 21.2443 62.2612 18.2994 62.7436 18.3287C63.1592 18.3515 62.6799 19.8745 63.4686 19.9822C65.1827 20.217 66.1232 15.387 66.827 15.4914C67.5308 15.5958 67.2669 18.482 68.9506 18.6646C70.3917 18.8179 71.3776 16.7079 71.5111 16.3817C71.6446 16.0556 71.4535 15.8273 71.138 16.0458ZM58.2263 17.5623C57.8956 18.5668 56.9461 20.1713 56.3636 20.2887C56.1664 20.3279 55.9206 20.1159 55.9358 19.7474C55.9753 18.8831 57.3192 17.0568 57.8622 16.9166C58.2475 16.8253 58.3598 17.1546 58.2263 17.5623Z" fill="#000"/><path d="M38.1104 21.5249C36.8787 22.3369 36.5511 23.6088 37.1548 24.3361C37.7585 25.0634 39.2056 24.9101 40.0884 24.2774C41.1017 23.5567 41.4567 22.35 40.856 21.6195C40.2553 20.8889 39.0418 20.9052 38.1104 21.5249Z" fill="#000"/><path d="M52.1814 18.1362C50.8253 16.8675 49.2568 15.762 47.9614 14.6955C47.2121 14.0824 47.7308 13.3291 48.5318 12.6866C51.3805 10.4037 55.3547 6.55867 53.5284 1.94071C51.7657 -2.52397 43.4654 0.919932 43.1256 10.1624C43.0073 13.4563 43.4138 22.5715 43.1863 24.8544C43.0558 26.1817 43.523 26.035 43.9751 25.8328C44.5639 25.5831 45.0654 25.1417 45.4092 24.5703C45.753 23.9989 45.922 23.3263 45.8924 22.6465C45.8074 20.481 45.6254 11.0494 45.5647 10.0743C45.2614 4.98674 48.192 0.225282 50.0699 2.20813C52.961 5.27047 48.0342 11.0723 46.845 12.5659C46.311 13.2182 45.8165 14.2292 46.6569 15.1749C47.4972 16.1207 48.3892 17.0469 49.1203 17.7677C50.0304 18.6645 49.7513 20.3408 49.184 21.2474C48.8018 21.854 47.9553 22.9172 46.9785 24.2641C46.0016 25.611 45.1097 26.8372 45.0096 26.9742C44.7343 27.3329 44.5719 27.7761 44.5457 28.2402C44.5196 28.7043 44.631 29.1654 44.8639 29.5571C45.9136 31.3117 46.0137 31.2889 46.6842 30.0333C47.7574 28.1127 48.9999 26.3074 50.3945 24.6424C51.004 23.9004 51.5713 23.1195 52.0934 22.3041C53.0915 20.755 53.1946 19.095 52.1814 18.1362Z" fill="#000"/><path d="M85.9616 0.000488281H85.2031V39.9967H85.9616V0.000488281Z" fill="#000"/></svg>